<?xml version="1.0" standalone="no"?>
<!DOCTYPE svg PUBLIC "-//W3C//DTD SVG 20010904//EN"
 "http://www.w3.org/TR/2001/REC-SVG-20010904/DTD/svg10.dtd">
<svg version="1.0" xmlns="http://www.w3.org/2000/svg"
 width="1917.000000pt" height="1920.000000pt" viewBox="0 0 1917.000000 1920.000000"
 preserveAspectRatio="xMidYMid meet">
<metadata>
Created by potrace 1.16, written by Peter Selinger 2001-2019
</metadata>
<g transform="translate(0.000000,1920.000000) scale(0.100000,-0.100000)"
fill="#000000" stroke="none">
<path d="M9160 19180 c-107 -5 -208 -11 -225 -14 -16 -3 -79 -7 -140 -10 -60
-4 -119 -9 -129 -12 -21 -7 -86 -12 -149 -13 -21 0 -37 -4 -34 -8 3 -4 -32 -9
-76 -10 -45 -1 -83 -6 -85 -11 -2 -6 -17 -8 -33 -5 -17 2 -38 1 -47 -3 -10 -4
-29 -6 -44 -5 -14 1 -29 -2 -32 -8 -4 -6 -13 -8 -20 -5 -8 3 -38 0 -67 -6 -30
-6 -64 -11 -76 -11 -16 1 -21 -4 -17 -14 8 -20 34 -19 50 3 8 10 13 12 14 5 0
-18 35 -16 50 2 8 10 16 12 20 6 4 -7 67 -2 185 14 655 88 1404 104 2090 44
731 -64 1529 -230 2201 -460 1255 -428 2357 -1073 3339 -1953 138 -124 463
-444 609 -601 930 -998 1649 -2214 2073 -3505 244 -744 390 -1488 454 -2310
17 -224 23 -891 10 -1145 -68 -1327 -388 -2565 -966 -3740 -169 -342 -327
-620 -589 -1035 -469 -741 -1167 -1525 -1901 -2136 -448 -372 -951 -717 -1470
-1006 -55 -31 -248 -127 -428 -214 -278 -133 -330 -155 -341 -143 -8 8 -726
1242 -1596 2744 -1370 2361 -5558 9583 -5672 9779 l-40 68 -30 -53 c-38 -67
-3347 -5771 -4223 -7279 -353 -608 -647 -1104 -653 -1103 -18 4 -14 -13 5 -28
11 -10 14 -10 9 -1 -4 6 -5 12 -2 12 10 0 40 -65 38 -81 -2 -9 5 -22 14 -30
16 -13 16 -12 5 11 -37 77 106 -143 223 -343 31 -53 54 -102 50 -109 -5 -7 -3
-8 6 -3 10 6 12 4 7 -9 -4 -9 -3 -15 2 -12 5 3 12 -1 15 -10 8 -22 8 -26 -4
-19 -16 10 -11 -1 7 -16 14 -12 16 -12 8 0 -5 9 -4 12 3 8 5 -4 8 -15 6 -25
-2 -9 5 -28 17 -42 l21 -25 -17 28 c-9 16 -15 30 -13 32 2 2 16 -16 31 -41 15
-25 22 -42 15 -38 -8 5 -9 2 -5 -10 4 -10 7 -20 7 -22 0 -2 5 -4 11 -4 5 0 7
5 4 10 -3 6 -4 10 -2 10 2 0 25 -32 51 -71 26 -39 42 -68 34 -64 -7 4 -1 -3
13 -16 32 -30 90 -110 64 -89 -17 14 -18 14 -6 -8 7 -12 16 -20 21 -17 5 3 12
0 16 -6 4 -8 3 -9 -4 -5 -7 4 -12 2 -12 -3 0 -6 6 -11 14 -11 7 0 20 -8 27
-17 13 -16 12 -17 -4 -4 -15 12 -17 12 -12 -2 4 -8 14 -17 23 -20 9 -2 32 -26
50 -53 22 -32 25 -39 8 -19 -14 17 -26 26 -26 21 0 -11 47 -66 52 -60 3 2 13
-6 24 -18 19 -22 19 -22 0 -8 -18 14 -19 14 -8 -7 7 -12 17 -25 24 -29 7 -5 8
-3 3 7 -8 12 -6 12 8 0 18 -15 23 -26 7 -16 -5 3 -10 1 -10 -4 0 -6 4 -11 8
-11 5 0 15 -11 22 -25 7 -14 15 -23 18 -20 3 2 -1 11 -8 20 -7 8 -10 15 -8 15
3 0 20 -19 38 -42 24 -30 27 -37 10 -23 l-24 20 23 -32 c21 -31 41 -47 25 -21
-5 9 -2 9 9 -1 19 -15 23 -26 6 -15 -7 4 -10 1 -7 -7 3 -8 10 -13 15 -12 6 1
21 -10 34 -25 l24 -27 -24 20 -24 20 14 -23 c8 -12 19 -22 25 -22 6 0 21 -12
35 -27 13 -14 18 -23 12 -19 -7 4 -13 2 -13 -3 0 -6 6 -11 13 -11 8 0 22 -10
33 -22 l19 -23 -24 20 -24 20 18 -27 c9 -15 21 -26 25 -23 11 7 91 -85 85 -96
-3 -4 0 -11 6 -15 8 -5 10 -2 5 7 -5 8 19 -15 53 -51 64 -69 86 -105 25 -42
l-36 37 37 -47 c21 -26 41 -46 45 -43 9 6 135 -128 135 -143 0 -11 151 -172
161 -172 5 0 -30 39 -76 88 -47 48 -19 22 63 -58 81 -80 147 -147 147 -149 0
-3 -17 11 -38 30 l-37 34 34 -37 c19 -21 37 -35 41 -33 4 3 15 -4 25 -15 10
-11 14 -20 10 -20 -5 0 6 -16 25 -35 18 -19 37 -32 41 -30 11 8 159 -135 159
-153 0 -13 2 -14 9 -4 6 10 17 2 44 -28 21 -22 37 -37 37 -33 0 4 18 -10 40
-32 21 -21 37 -41 35 -45 -2 -4 10 -17 28 -30 l32 -23 -25 28 c-14 16 1 7 33
-19 31 -27 57 -56 58 -65 0 -9 3 -11 5 -4 6 13 204 -142 204 -159 0 -11 35
-43 65 -59 11 -7 2 5 -20 25 -28 26 -20 22 30 -15 39 -29 77 -59 85 -68 8 -8
-2 -3 -22 12 -20 15 -40 27 -44 27 -4 0 17 -18 46 -40 59 -44 69 -49 49 -22
-13 15 -12 16 4 3 9 -7 17 -19 17 -26 0 -7 7 -16 16 -19 15 -6 15 -4 3 11 -13
16 -12 17 3 4 10 -7 18 -19 18 -26 0 -7 7 -16 16 -19 15 -6 15 -4 3 11 -13 16
-12 17 4 4 9 -7 17 -19 17 -25 0 -6 17 -21 38 -34 l37 -23 -35 31 c-22 20 -5
11 44 -22 43 -29 81 -60 83 -69 2 -8 19 -24 36 -33 l32 -18 -30 26 -30 27 43
-27 c23 -15 42 -29 42 -31 0 -2 -5 -1 -12 3 -7 4 -8 3 -4 -5 4 -6 11 -9 16 -6
13 8 210 -125 210 -142 0 -7 5 -13 11 -13 5 0 7 5 3 11 -8 14 22 -2 51 -26 18
-16 17 -15 -9 0 -16 9 -25 12 -22 6 4 -6 21 -18 38 -27 18 -9 27 -11 23 -4 -9
15 20 0 50 -25 19 -16 18 -16 -10 0 l-30 16 30 -25 c31 -27 51 -34 39 -15 -4
8 0 8 15 0 11 -7 21 -14 21 -17 0 -3 -5 -2 -12 2 -6 4 -8 3 -5 -4 8 -11 91
-62 103 -62 4 0 -1 7 -12 15 -17 14 -15 14 13 0 18 -8 32 -20 30 -26 -1 -7 5
-14 13 -16 13 -4 13 -3 0 6 -8 6 -10 11 -4 11 5 0 19 -7 30 -16 10 -8 13 -13
7 -9 -22 11 -14 -4 8 -16 16 -8 20 -8 14 1 -4 7 6 5 24 -4 17 -9 31 -19 31
-22 0 -2 -9 0 -20 6 -11 6 -20 9 -20 6 0 -8 92 -58 97 -52 4 3 2 6 -3 6 -6 0
-19 7 -30 15 -11 10 -2 8 23 -5 24 -11 43 -23 43 -26 0 -3 -6 -2 -13 1 -6 4
-1 -3 12 -14 13 -12 28 -21 34 -21 6 0 2 7 -9 15 -11 10 -2 8 24 -5 23 -11 42
-23 42 -26 0 -3 -6 -2 -12 2 -8 5 -8 1 1 -10 8 -10 23 -15 33 -13 10 3 16 1
13 -4 -5 -8 105 -70 122 -69 4 1 -18 14 -50 31 -31 16 -57 31 -57 34 0 3 83
-37 185 -87 101 -51 182 -94 180 -96 -2 -2 -17 4 -34 13 -17 8 -31 13 -31 10
0 -6 109 -61 140 -69 19 -6 21 -5 10 3 -23 17 2 12 30 -5 14 -8 17 -13 8 -10
-35 11 -17 -5 28 -24 53 -23 70 -25 34 -5 -14 8 -20 14 -15 14 6 0 26 -9 45
-20 19 -11 27 -18 18 -15 -40 12 -14 -7 48 -34 64 -29 105 -40 74 -20 -8 5
-10 10 -5 10 15 0 37 -16 35 -26 0 -5 7 -10 17 -12 15 -3 16 -1 3 7 -24 17 2
12 30 -5 18 -11 20 -14 5 -10 -20 6 -20 6 -1 -9 11 -8 27 -15 35 -15 14 0 14
1 1 10 -8 5 -10 10 -5 10 15 0 37 -16 35 -26 0 -5 7 -10 17 -12 15 -3 16 -1 3
7 -8 6 -10 11 -5 11 15 0 37 -16 37 -26 0 -10 125 -63 148 -63 8 0 2 6 -15 14
-37 16 -29 19 13 4 17 -6 30 -16 29 -22 -1 -6 7 -12 18 -14 17 -4 18 -2 5 7
-13 10 -12 11 3 6 10 -3 21 -6 23 -6 3 0 3 -4 -1 -9 -5 -9 79 -45 132 -56 l28
-6 -30 15 c-36 17 -30 20 13 5 18 -6 30 -15 27 -19 -6 -9 1 -12 113 -50 45
-16 82 -25 82 -19 0 5 5 9 11 9 5 0 8 -4 4 -9 -3 -5 -1 -12 5 -16 5 -3 10 -1
10 4 0 6 5 11 11 11 5 0 8 -4 4 -9 -3 -5 -1 -12 5 -16 5 -3 10 -1 10 4 0 6 5
11 11 11 5 0 7 -5 3 -12 -5 -8 -2 -9 10 -5 24 9 72 -3 55 -14 -8 -5 9 -14 47
-24 32 -10 124 -36 204 -60 240 -71 734 -180 1040 -229 334 -54 559 -76 1058
-100 l492 -24 488 24 c635 31 925 65 1427 168 357 74 590 134 975 251 85 26
161 52 169 58 8 7 16 10 18 8 2 -2 39 9 81 24 185 65 330 119 367 135 22 10
96 42 165 71 69 28 136 60 150 69 25 17 166 86 320 158 181 84 388 187 455
227 39 23 113 66 165 95 125 71 464 282 468 292 2 4 10 8 17 8 7 0 15 4 17 8
2 4 53 41 113 82 61 40 144 99 185 130 41 31 95 70 120 87 25 17 56 41 70 53
14 12 66 54 115 92 102 79 223 177 315 258 143 124 175 153 185 164 6 6 30 28
55 50 178 153 725 723 818 851 16 22 37 47 47 55 9 8 47 53 83 100 36 47 74
93 85 104 10 10 50 61 89 115 39 53 74 98 78 101 3 3 41 55 83 115 43 61 88
123 101 138 12 16 47 68 76 115 30 48 86 137 125 197 39 61 84 133 100 160 16
28 39 64 51 80 42 58 234 406 346 627 155 305 229 464 319 693 22 55 48 118
58 140 10 22 26 60 34 85 9 25 39 108 67 185 57 156 154 460 194 605 15 52 35
124 46 160 35 117 143 606 176 795 91 530 144 1138 144 1670 0 497 -49 1105
-126 1559 -8 50 -16 100 -18 111 -10 63 -83 414 -116 555 -58 247 -212 780
-255 880 -8 19 -39 106 -70 193 -30 87 -69 187 -85 223 -17 35 -30 67 -30 70
0 10 -120 296 -163 389 -77 166 -278 559 -375 730 -381 676 -882 1349 -1411
1897 -150 157 -380 383 -451 444 -24 22 -71 64 -105 95 -70 66 -144 129 -275
236 -52 43 -101 84 -109 91 -8 7 -59 48 -115 90 -56 41 -103 79 -106 82 -8 11
-350 254 -415 295 -33 21 -62 40 -65 44 -3 3 -14 11 -25 18 -74 45 -262 164
-271 172 -7 5 -68 43 -138 83 -373 216 -773 417 -1106 555 -85 35 -180 75
-210 88 -58 24 -192 75 -320 119 -41 15 -84 30 -95 35 -45 21 -418 135 -645
198 -182 50 -446 108 -807 178 -88 17 -444 67 -603 84 -443 49 -1065 70 -1490
51z"/>
</g>
</svg>
