<?xml version="1.0" encoding="UTF-8"?>
<svg version="1.1" viewBox="0 0 100 100" xmlns="http://www.w3.org/2000/svg">
 <g transform="translate(0 -952.36)">
  <circle cx="50" cy="1002.4" r="45.669" fill="#f8ffc5"/>
  <circle cx="58.997" cy="1001.5" r="10.501" fill="#fff"/>
  <path d="m24.658 1009.6s8.0516-1.3476 13.319-1.5926 10.413 0.8575 15.926 1.4701c5.5128 0.6125 21.439-1.9601 21.439-1.9601l-0.0088 11.894-2.6701 5.8871-12.267 2.399h-26.707l-6.8249-2.8867s-2.2068-6.635-2.2068-7.1251v-8.0854z" fill="#fff" fill-rule="evenodd" stroke="#f8ffc5" stroke-width="1px"/>
  <path d="m33.34 974.62c-6.0949 0-11.076 4.9813-11.076 11.076v33.32c0 6.0949 4.9813 11.078 11.076 11.078h33.32c6.0949 0 11.076-4.9832 11.076-11.078v-33.32c0-6.0949-4.9813-11.076-11.076-11.076h-33.32zm0 4.7891h33.32c3.5249 0 6.2871 2.7622 6.2871 6.2871v33.32c0 3.5249-2.7622 6.289-6.2871 6.289h-33.32c-3.5249 0-6.2871-2.7641-6.2871-6.289v-33.32c0-3.5249 2.7622-6.2871 6.2871-6.2871z" color="#000000" color-rendering="auto" fill="#fff" image-rendering="auto" shape-rendering="auto" solid-color="#000000" stroke="#f8ffc5" stroke-linecap="round" stroke-linejoin="round" style="block-progression:tb;isolation:auto;mix-blend-mode:normal;text-decoration-color:#000000;text-decoration-line:none;text-decoration-style:solid;text-indent:0;text-transform:none;white-space:normal"/>
 </g>
</svg>
